<?xml version="1.0" encoding="utf-8"?>
<!-- Generator: Adobe Illustrator 27.5.0, SVG Export Plug-In . SVG Version: 6.00 Build 0)  -->
<svg version="1.1" xmlns="http://www.w3.org/2000/svg" xmlns:xlink="http://www.w3.org/1999/xlink" x="0px" y="0px"
	 viewBox="0 0 500 500" style="enable-background:new 0 0 500 500;" xml:space="preserve">
<g id="Background_Simple">
	<g>
		<path style="fill:#92E3A9;" d="M91.083,127.136c0,0-50.216,48.45-42.404,140.021c7.813,91.571,80.792,130.645,132.234,117.051
			c51.441-13.594,65.024-43.023,107.278-57.238c42.255-14.215,119.058,3.621,162.371-51.617
			c43.312-55.239,1.035-155.462-57.535-220.748C334.457-10.682,170.29,14.892,91.083,127.136z"/>
		<path style="opacity:0.7;fill:#FFFFFF;" d="M91.083,127.136c0,0-50.216,48.45-42.404,140.021
			c7.813,91.571,80.792,130.645,132.234,117.051c51.441-13.594,65.024-43.023,107.278-57.238
			c42.255-14.215,119.058,3.621,162.371-51.617c43.312-55.239,1.035-155.462-57.535-220.748
			C334.457-10.682,170.29,14.892,91.083,127.136z"/>
	</g>
</g>
<g id="Floor">
	<g>
		
			<line style="fill:none;stroke:#263238;stroke-linecap:round;stroke-miterlimit:10;" x1="438.453" y1="447.727" x2="454.25" y2="447.727"/>
		
			<line style="fill:none;stroke:#263238;stroke-linecap:round;stroke-miterlimit:10;" x1="25.785" y1="447.727" x2="429.892" y2="447.727"/>
	</g>
</g>
<g id="Plant">
	<g>
		<g>
			<g>
				<path style="fill:#263238;" d="M333.453,359.207c2.09,0.913,7.2,0.797,7.204,0.797c0.053-0.001-1.099-3.345-1.195-3.548
					c-1.121-2.346-4.667-6.219-7.553-5.829c-2.078,0.281-3.234,2.361-2.765,4.318C329.623,356.945,331.674,358.429,333.453,359.207z
					"/>
				<path style="fill:#263238;" d="M335.217,374.01c2.168,0.316,6.728-1.006,7.091-1.113c0.72,2.553,1.666,5.115,2.766,7.654
					c0.627,1.453,1.304,2.896,2.002,4.335c-0.416-0.609-0.793-1.151-0.853-1.222c-1.702-1.967-6.144-4.765-8.824-3.627
					c-1.931,0.819-2.496,3.131-1.527,4.895c0.989,1.801,3.361,2.692,5.282,2.972c1.95,0.285,5.861-0.765,6.893-1.057
					c0.273,0.55,0.539,1.101,0.815,1.649c1.321,2.63,2.65,5.248,3.875,7.857c0.432,0.919,0.824,1.84,1.22,2.76
					c-0.37-0.541-0.686-0.994-0.742-1.058c-1.701-1.966-6.144-4.765-8.824-3.627c-1.931,0.82-2.496,3.131-1.527,4.895
					c0.991,1.801,3.36,2.692,5.282,2.972c1.861,0.271,5.479-0.665,6.706-1.006c0.377,0.954,0.756,1.909,1.077,2.851
					c0.205,0.648,0.448,1.258,0.618,1.92c0.182,0.652,0.362,1.298,0.54,1.937c0.299,1.243,0.614,2.526,0.875,3.746
					c0.188,0.848,0.351,1.659,0.518,2.476c-0.42-0.92-1.279-2.703-1.368-2.845c-1.383-2.201-5.351-5.64-8.173-4.922
					c-2.032,0.518-2.942,2.717-2.25,4.607c0.706,1.931,2.913,3.17,4.77,3.738c2.045,0.625,6.571,0.054,7.136-0.021
					c0.272,1.353,0.523,2.671,0.74,3.918c0.116,0.66,0.217,1.281,0.32,1.905h1.801c-0.133-0.719-0.272-1.453-0.425-2.221
					c-0.27-1.375-0.586-2.838-0.924-4.338c0.34-0.135,2.271-0.916,3.982-1.872c1.49,1.614,5.308,3.503,5.803,3.743
					c-0.519,1.278-1.038,2.516-1.545,3.676c-0.153,0.351-0.3,0.678-0.449,1.012h1.897c0.047-0.114,0.094-0.224,0.142-0.341
					c0.533-1.295,1.077-2.691,1.622-4.128c0.548,0.115,5.029,1.025,7.117,0.553c1.894-0.428,4.188-1.5,5.036-3.373
					c0.83-1.832,0.087-4.094-1.902-4.762c-2.759-0.927-6.973,2.207-8.516,4.3c-0.091,0.123-0.93,1.573-1.443,2.496
					c0.219-0.588,0.439-1.158,0.658-1.766c0.441-1.201,0.845-2.412,1.284-3.713c0.19-0.636,0.382-1.278,0.577-1.927
					c0.206-0.639,0.342-1.341,0.518-2.017c0.376-1.576,0.679-3.191,0.949-4.825c1.052,0.383,4.809,1.69,6.755,1.553
					c1.937-0.136,4.367-0.847,5.488-2.57c1.099-1.686,0.707-4.034-1.158-4.996c-2.588-1.334-7.227,1.126-9.07,2.96
					c-0.115,0.114-1.289,1.579-1.919,2.396c0.155-0.984,0.314-1.964,0.438-2.964c0.358-2.887,0.631-5.82,0.916-8.745
					c0.087-0.896,0.184-1.788,0.278-2.681c0.373,0.141,4.804,1.79,6.984,1.637c1.937-0.136,4.367-0.848,5.489-2.57
					c1.098-1.686,0.707-4.033-1.158-4.995c-2.588-1.335-7.227,1.125-9.069,2.959c-0.139,0.138-1.826,2.248-2.228,2.806
					c0.208-1.967,0.433-3.925,0.734-5.846c0.411-2.651,0.961-5.23,1.678-7.689c0.173,0.066,4.791,1.808,7.023,1.652
					c1.937-0.136,4.367-0.848,5.489-2.571c1.098-1.686,0.707-4.033-1.158-4.995c-2.588-1.335-7.227,1.126-9.07,2.96
					c-0.144,0.144-1.958,2.415-2.258,2.85c0.043-0.146,0.072-0.302,0.117-0.448c0.799-2.615,1.902-5.049,3.046-7.276
					c0.662-1.296,1.368-2.497,2.08-3.651c0.827,0.413,4.626,2.257,6.65,2.338c1.94,0.077,4.434-0.363,5.738-1.952
					c1.277-1.556,1.145-3.932-0.602-5.092c-2.426-1.611-7.307,0.325-9.34,1.946c-0.111,0.088-1.135,1.108-1.871,1.862
					c0.329-0.516,0.66-1.054,0.985-1.542c1.218-1.834,2.446-3.439,3.546-4.851c0.632-0.798,1.218-1.507,1.775-2.165
					c1.022-0.018,5.142-0.143,6.943-0.989c1.757-0.826,3.768-2.365,4.193-4.376c0.416-1.969-0.796-4.018-2.881-4.242
					c-2.895-0.312-6.335,3.655-7.393,6.03c-0.091,0.206-1.152,3.58-1.099,3.579c0,0,0.05,0,0.062-0.001
					c-0.549,0.622-1.128,1.295-1.748,2.044c-1.133,1.391-2.399,2.973-3.661,4.788c-1.267,1.811-2.592,3.813-3.797,6.048
					c-1.211,2.239-2.37,4.656-3.243,7.301c-0.01,0.03-0.016,0.063-0.026,0.092c0.015-0.853-0.022-3.239-0.046-3.422
					c-0.334-2.578-2.495-7.364-5.359-7.894c-2.062-0.381-3.81,1.235-3.974,3.241c-0.168,2.049,1.317,4.099,2.766,5.393
					c1.633,1.459,6.167,2.871,6.528,2.983c-0.808,2.526-1.432,5.185-1.916,7.909c-0.278,1.558-0.509,3.135-0.721,4.72
					c-0.011-0.738-0.026-1.398-0.038-1.49c-0.334-2.579-2.495-7.364-5.359-7.893c-2.063-0.382-3.81,1.235-3.974,3.241
					c-0.168,2.049,1.317,4.099,2.765,5.393c1.47,1.312,5.311,2.595,6.332,2.921c-0.075,0.609-0.157,1.216-0.229,1.825
					c-0.349,2.922-0.685,5.839-1.102,8.691c-0.146,1.005-0.328,1.989-0.505,2.974c-0.01-0.655-0.024-1.207-0.035-1.29
					c-0.334-2.579-2.495-7.364-5.358-7.894c-2.064-0.381-3.81,1.235-3.975,3.241c-0.168,2.048,1.318,4.099,2.766,5.392
					c1.402,1.253,4.937,2.468,6.148,2.861c-0.212,1.004-0.423,2.009-0.675,2.973c-0.187,0.654-0.32,1.296-0.544,1.942
					c-0.208,0.644-0.414,1.282-0.618,1.914c-0.438,1.202-0.882,2.445-1.338,3.607c-0.311,0.811-0.623,1.578-0.934,2.351
					c0.157-0.999,0.424-2.96,0.428-3.126c0.04-1.727-0.573-4.535-1.795-6.509c0.008-0.255-0.007-0.509-0.048-0.762
					c-0.319-1.987-2.186-3.463-4.213-2.923c-2.814,0.749-4.598,5.688-4.731,8.284c-0.008,0.153,0.092,1.824,0.173,2.878
					c-0.142-0.612-0.272-1.208-0.425-1.836c-0.295-1.245-0.627-2.477-0.977-3.806c-0.192-0.635-0.386-1.277-0.583-1.925
					c-0.181-0.646-0.454-1.307-0.68-1.968c-0.557-1.521-1.194-3.036-1.871-4.548c1.089-0.261,4.943-1.243,6.491-2.431
					c1.541-1.182,3.174-3.116,3.16-5.171c-0.014-2.013-1.635-3.755-3.721-3.528c-2.895,0.314-5.407,4.926-5.933,7.472
					c-0.032,0.159-0.204,2.028-0.279,3.057c-0.414-0.905-0.822-1.811-1.271-2.714c-1.293-2.606-2.684-5.203-4.06-7.8
					c-0.422-0.795-0.833-1.592-1.247-2.389c0.389-0.089,4.995-1.158,6.728-2.488c1.54-1.182,3.175-3.116,3.16-5.172
					c-0.015-2.012-1.636-3.754-3.721-3.527c-2.895,0.314-5.407,4.925-5.932,7.472c-0.039,0.192-0.282,2.882-0.311,3.569
					c-0.912-1.755-1.804-3.512-2.613-5.281c-1.12-2.438-2.084-4.892-2.842-7.339c0.181-0.041,4.993-1.135,6.769-2.497
					c1.541-1.182,3.175-3.116,3.16-5.172c-0.014-2.013-1.636-3.754-3.722-3.528c-2.894,0.314-5.407,4.926-5.932,7.472
					c-0.041,0.2-0.301,3.095-0.31,3.622c-0.045-0.145-0.108-0.291-0.151-0.436c-0.776-2.623-1.199-5.261-1.473-7.75
					c-0.163-1.446-0.237-2.837-0.278-4.192c0.917-0.112,5.103-0.669,6.836-1.719c1.662-1.006,3.498-2.749,3.709-4.793
					c0.207-2.002-1.214-3.912-3.311-3.915c-2.912-0.006-5.915,4.302-6.717,6.775c-0.044,0.135-0.336,1.551-0.534,2.585
					c-0.009-0.612-0.031-1.243-0.028-1.829c0.004-2.202,0.143-4.218,0.281-6.002c0.086-1.014,0.185-1.93,0.286-2.785
					c0.843-0.579,4.21-2.956,5.245-4.655c1.011-1.658,1.838-4.051,1.083-5.963c-0.739-1.872-2.88-2.912-4.743-1.949
					c-2.587,1.337-3.267,6.544-2.84,9.108c0.038,0.221,1.014,3.621,1.059,3.592c0,0,0.041-0.028,0.051-0.035
					c-0.114,0.821-0.226,1.703-0.33,2.669c-0.177,1.785-0.361,3.803-0.412,6.014c-0.058,2.208-0.058,4.61,0.17,7.139
					c0.225,2.535,0.591,5.191,1.323,7.878c0.008,0.03,0.021,0.061,0.029,0.092c-0.458-0.72-1.806-2.689-1.927-2.829
					c-1.701-1.967-6.144-4.765-8.824-3.628c-1.931,0.82-2.496,3.132-1.527,4.896C330.926,372.84,333.296,373.73,335.217,374.01z"/>
				<path style="fill:#263238;" d="M385.147,360.331c0.045,0.028,0.929-3.397,0.961-3.619c0.358-2.575-0.463-7.762-3.085-9.028
					c-1.889-0.912-4,0.185-4.688,2.077c-0.703,1.931,0.188,4.301,1.244,5.931C380.817,357.606,385.143,360.329,385.147,360.331z"/>
			</g>
		</g>
		<g>
			<path style="fill:#FFFFFF;stroke:#263238;stroke-linecap:round;stroke-miterlimit:10;" d="M367.177,456.375h-3.893
				c-9.399,0-17.018-7.619-17.018-17.018v-20.43h37.928v20.43C384.195,448.756,376.576,456.375,367.177,456.375z"/>
			<g>
				<path style="fill:#FFFFFF;stroke:#263238;stroke-linecap:round;stroke-miterlimit:10;" d="M384.195,437.996v-4.606
					c-3.015,2.369-6.932,1.844-9.798,0.034c-5.205-3.285-11.271-0.714-11.528-0.603c-1.013,0.44-1.477,1.618-1.036,2.632
					c0.44,1.013,1.618,1.476,2.632,1.036c0.041-0.02,4.416-1.819,7.796,0.317c2.323,1.467,4.818,2.183,7.228,2.183
					C381.125,438.989,382.717,438.645,384.195,437.996z"/>
				<path style="fill:#FFFFFF;stroke:#263238;stroke-linecap:round;stroke-miterlimit:10;" d="M346.266,437.393
					c2.255-0.332,5.011-1.159,8.374-2.776c6.644-3.195,18.185-7.771,20.81-2.519c0.494,0.987,1.693,1.39,2.684,0.895
					c0.988-0.494,1.389-1.695,0.895-2.684c-3.172-6.341-11.96-6.106-26.121,0.702c-2.757,1.326-4.925,2.008-6.642,2.321V437.393z"/>
			</g>
			<circle style="fill:#FFFFFF;stroke:#263238;stroke-linecap:round;stroke-miterlimit:10;" cx="351.243" cy="428.093" r="1.409"/>
			<path style="fill:#FFFFFF;stroke:#263238;stroke-linecap:round;stroke-miterlimit:10;" d="M360.754,425.275
				c0,0.778-0.631,1.409-1.409,1.409s-1.409-0.631-1.409-1.409c0-0.778,0.631-1.409,1.409-1.409S360.754,424.497,360.754,425.275z"
				/>
			<path style="fill:#FFFFFF;stroke:#263238;stroke-linecap:round;stroke-miterlimit:10;" d="M370.265,423.162
				c0,0.778-0.631,1.409-1.409,1.409c-0.778,0-1.409-0.631-1.409-1.409s0.631-1.409,1.409-1.409
				C369.634,421.753,370.265,422.383,370.265,423.162z"/>
			<path style="fill:#FFFFFF;stroke:#263238;stroke-linecap:round;stroke-miterlimit:10;" d="M379.6,424.395
				c0,0.778-0.631,1.409-1.409,1.409c-0.778,0-1.409-0.631-1.409-1.409s0.631-1.409,1.409-1.409
				C378.969,422.986,379.6,423.616,379.6,424.395z"/>
			<circle style="fill:#FFFFFF;stroke:#263238;stroke-linecap:round;stroke-miterlimit:10;" cx="366.566" cy="439.189" r="1.409"/>
			<path style="fill:#FFFFFF;stroke:#263238;stroke-linecap:round;stroke-miterlimit:10;" d="M375.02,442.007
				c0,0.778-0.631,1.409-1.409,1.409s-1.409-0.631-1.409-1.409c0-0.778,0.631-1.409,1.409-1.409S375.02,441.229,375.02,442.007z"/>
			<path style="fill:#FFFFFF;stroke:#263238;stroke-linecap:round;stroke-miterlimit:10;" d="M382.066,442.007
				c0,0.778-0.631,1.409-1.409,1.409c-0.778,0-1.409-0.631-1.409-1.409c0-0.778,0.631-1.409,1.409-1.409
				C381.435,440.598,382.066,441.229,382.066,442.007z"/>
		</g>
	</g>
</g>
<g id="Lines">
	<g>
		<path style="fill:#92E3A9;" d="M135.071,41.484c-5.329,1.648-10.415,4.222-14.732,7.841c-2.128,1.837-4.041,3.96-5.513,6.391
			c-1.475,2.423-2.472,5.168-2.798,8.021l-0.127,2.148l0.148,2.145c0.027,0.72,0.217,1.412,0.319,2.12
			c0.18,0.688,0.311,1.395,0.536,2.07c0.818,2.731,2.02,5.312,3.37,7.773c2.667,4.943,5.942,9.48,8.04,14.499
			c1.034,2.496,1.962,5.071,2.211,7.703c0.295,2.617-0.005,5.253-1.078,7.588c-1.055,2.345-2.818,4.352-4.87,6.047
			c-2.054,1.705-4.379,3.137-6.764,4.484c-4.783,2.695-9.866,5.019-14.689,8.035c-2.403,1.516-4.746,3.212-6.839,5.259
			c-2.089,2.037-3.908,4.466-5.114,7.22c-1.207,2.754-1.861,5.728-1.775,8.784c0.076,3.057,1.027,6.105,2.559,8.708
			c1.55,2.6,3.569,4.786,5.679,6.746c2.114,1.959,4.367,3.704,6.553,5.403c2.096,1.619,4.038,3.433,5.415,5.462
			c1.328,2.039,2.028,4.246,1.374,6.244c-0.511,2.048-2.284,3.913-4.295,5.442c-1.009,0.786-2.133,1.448-3.271,2.133l-3.642,2.059
			c-2.425,1.421-4.863,2.919-7.169,4.698c-2.294,1.778-4.484,3.859-6.137,6.41c-1.662,2.534-2.7,5.518-2.964,8.51
			c-0.121,0.748-0.078,1.493-0.09,2.238c-0.023,0.757,0.033,1.468,0.11,2.174c0.146,1.419,0.229,2.842,0.504,4.242
			c0.894,5.619,2.562,11.096,4.999,16.186c1.218,2.546,2.655,4.976,4.205,7.314c1.565,2.332,3.276,4.558,5.255,6.558
			c0.067,0.068,0.176,0.076,0.253,0.016c0.083-0.065,0.097-0.185,0.032-0.267l-0.008-0.01c-3.415-4.342-6.121-9.222-8.146-14.312
			c-2.079-5.073-3.399-10.426-3.956-15.825c-0.192-1.345-0.193-2.707-0.26-4.059l-0.047-1.014c-0.014-0.337,0.021-0.65,0.028-0.975
			c0.036-0.644,0.015-1.295,0.149-1.92c0.326-2.536,1.264-4.916,2.726-6.979c2.927-4.173,7.62-7.034,12.398-9.671l3.637-2.013
			c1.252-0.734,2.532-1.475,3.73-2.387c1.21-0.885,2.358-1.924,3.394-3.128c0.278-0.273,0.486-0.643,0.726-0.967
			c0.225-0.342,0.479-0.655,0.674-1.025c0.363-0.761,0.785-1.487,0.975-2.347c0.29-0.818,0.341-1.699,0.4-2.57
			c0.005-0.433-0.062-0.862-0.098-1.293l-0.074-0.643l-0.162-0.611c-0.115-0.404-0.214-0.82-0.354-1.209l-0.497-1.118
			c-0.156-0.383-0.355-0.726-0.568-1.057l-0.624-1.008c-1.792-2.555-4.024-4.531-6.336-6.28c-2.24-1.664-4.422-3.285-6.427-5.064
			c-1.997-1.773-3.82-3.689-5.17-5.846c-1.325-2.163-2.127-4.564-2.252-7.071c-0.133-2.503,0.373-5.11,1.348-7.456
			c1.97-4.763,6.115-8.413,10.64-11.355c4.563-2.968,9.579-5.373,14.437-8.216c2.427-1.427,4.836-2.961,7.035-4.848
			c2.189-1.873,4.176-4.175,5.364-6.938c1.212-2.752,1.491-5.838,1.11-8.724c-0.335-2.92-1.372-5.627-2.501-8.229
			c-2.335-5.218-5.739-9.692-8.452-14.472c-1.377-2.38-2.589-4.842-3.427-7.424c-0.231-0.64-0.366-1.303-0.555-1.954
			c-0.109-0.664-0.309-1.321-0.345-1.993l-0.186-2.011l0.074-2.018c0.246-2.683,1.123-5.298,2.481-7.649
			c1.355-2.358,3.157-4.46,5.194-6.301c4.134-3.631,9.101-6.299,14.345-8.052c0.098-0.033,0.155-0.139,0.124-0.238
			C135.278,41.51,135.171,41.453,135.071,41.484z"/>
		<path style="fill:#92E3A9;" d="M453.362,277.322l-0.017,0.007c-0.768,0.302-1.522,0.638-2.295,0.91
			c-0.789,0.218-1.552,0.529-2.358,0.641c-1.579,0.381-3.203,0.394-4.787,0.185c-1.59-0.196-3.151-0.679-4.717-1.184l-4.738-1.56
			c-3.2-0.998-6.5-1.755-9.827-2.271c-1.661-0.302-3.337-0.437-5.01-0.646c-1.764-0.182-3.634-0.059-5.408,0.472
			c-1.778,0.518-3.442,1.439-4.836,2.614c-1.404,1.169-2.577,2.547-3.573,3.994c-1.995,2.902-3.412,6.038-4.706,9.134
			c-1.306,3.094-2.393,6.221-3.846,9.039c-1.419,2.881-3.123,5.616-5.077,8.123c-1.932,2.521-4.121,4.83-6.577,6.757
			c-2.45,1.935-5.215,3.399-8.126,4.272c-2.911,0.876-5.975,1.148-9.014,0.786l-2.272-0.368l-2.232-0.639
			c-1.491-0.421-2.966-1.056-4.418-1.709c-5.836-2.656-11.268-6.529-17.414-9.536c-3.074-1.488-6.314-2.749-9.746-3.455
			c-3.416-0.711-7.055-0.847-10.555-0.025c-1.735,0.433-3.415,1.048-4.999,1.836c-1.567,0.815-3.044,1.763-4.427,2.813
			c-2.744,2.124-5.125,4.581-7.344,7.104c-1.109,1.262-2.189,2.542-3.251,3.817l-1.597,1.9l-1.631,1.802
			c-1.047,1.249-2.276,2.288-3.439,3.406c-0.575,0.569-1.249,1.002-1.869,1.512c-0.634,0.489-1.249,1.01-1.943,1.398
			c-2.627,1.82-5.608,3.027-8.688,3.632c-3.09,0.598-6.303,0.475-9.43-0.194c-3.136-0.653-6.18-1.839-9.117-3.262
			c-2.942-1.419-5.802-3.049-8.623-4.766c-5.644-3.433-11.176-7.149-17.045-10.36c-2.931-1.609-5.974-3.043-9.121-4.222
			c-3.139-1.195-6.442-2.027-9.801-2.361c-3.349-0.335-6.784-0.195-10.058,0.548c-3.283,0.711-6.481,1.808-9.478,3.305
			c-2.994,1.501-5.815,3.344-8.361,5.512c-2.533,2.181-4.799,4.669-6.705,7.408c-0.058,0.086-0.039,0.204,0.046,0.264
			c0.086,0.061,0.205,0.041,0.266-0.045c1.938-2.674,4.223-5.087,6.76-7.189c2.549-2.089,5.36-3.848,8.326-5.264
			c5.938-2.765,12.6-4.258,19.078-3.403c3.237,0.384,6.417,1.247,9.455,2.471c3.044,1.208,5.995,2.666,8.852,4.307
			c5.722,3.273,11.154,7.074,16.784,10.648c2.824,1.775,5.713,3.479,8.728,4.987c3.009,1.511,6.18,2.806,9.54,3.56
			c3.344,0.768,6.887,0.965,10.324,0.351c3.425-0.616,6.747-1.927,9.61-3.846c0.762-0.418,1.427-0.96,2.115-1.474
			c0.67-0.533,1.405-1,2.021-1.589c1.249-1.161,2.572-2.259,3.683-3.542l1.736-1.866l1.633-1.888c1.08-1.259,2.16-2.502,3.259-3.717
			c2.195-2.428,4.497-4.72,7.036-6.627c1.276-0.94,2.613-1.766,4-2.465c1.4-0.67,2.858-1.175,4.348-1.529
			c2.994-0.644,6.141-0.485,9.198,0.208c3.066,0.687,6.045,1.899,8.912,3.354c5.742,2.922,11.124,6.916,17.332,9.898
			c1.564,0.724,3.143,1.425,4.838,1.932l2.548,0.754l2.637,0.46c3.543,0.456,7.226,0.213,10.664-0.847
			c3.435-1.058,6.62-2.801,9.364-4.998c2.755-2.192,5.142-4.759,7.223-7.517c2.065-2.774,3.823-5.746,5.271-8.85
			c1.51-3.129,2.555-6.31,3.737-9.366c1.163-3.06,2.421-6.048,4.113-8.679c1.688-2.606,3.882-4.837,6.682-5.777
			c1.389-0.485,2.887-0.669,4.429-0.581c1.628,0.13,3.27,0.185,4.889,0.405c3.253,0.349,6.47,0.946,9.655,1.763l4.814,1.25
			c1.619,0.409,3.278,0.812,4.999,0.915c1.707,0.116,3.46-0.013,5.084-0.523c0.833-0.187,1.594-0.568,2.384-0.857
			c0.768-0.341,1.505-0.743,2.254-1.11c0.088-0.043,0.13-0.148,0.093-0.24C453.57,277.331,453.46,277.283,453.362,277.322z"/>
		<path style="fill:#92E3A9;" d="M198.356,218.225c3.225-1.085,6.462-2.154,9.672-3.341c3.204-1.193,6.394-2.51,9.413-4.23
			c3.006-1.718,5.849-3.907,8.01-6.727c2.2-2.79,3.598-6.132,4.445-9.525c0.801-3.416,1.087-6.902,1.105-10.358
			c0.011-3.479-0.261-6.863-0.375-10.25c-0.263-6.778-0.336-13.56,0.223-20.265c0.57-6.685,1.793-13.347,4.441-19.395
			c2.641-6.034,6.896-11.26,12.361-14.859c2.72-1.81,5.696-3.244,8.794-4.368c3.083-1.138,6.365-1.895,9.609-2.673
			c6.534-1.444,13.236-2.062,19.992-2.521c6.755-0.487,13.61-0.78,20.469-1.739c6.849-0.972,13.677-2.636,20.159-5.207l2.415-1.002
			l1.207-0.502l1.165-0.59l4.649-2.373l4.444-2.713c1.509-0.864,2.894-1.904,4.291-2.924c1.385-1.034,2.829-2,4.16-3.09l3.983-3.279
			c1.351-1.063,2.587-2.269,3.864-3.422c1.262-1.171,2.546-2.313,3.722-3.578c4.862-4.866,9.343-10.171,12.938-16.067
			c1.79-2.949,3.325-6.052,4.568-9.265c1.205-3.223,2.106-6.598,2.115-10.078c0-0.099-0.077-0.183-0.177-0.19
			c-0.105-0.007-0.195,0.072-0.202,0.177l-0.002,0.025c-0.108,1.657-0.504,3.32-0.985,4.926c-0.238,0.806-0.538,1.596-0.802,2.392
			l-0.966,2.331c-1.409,3.057-3.089,5.98-5.01,8.74c-3.768,5.57-8.356,10.559-13.321,15.098c-1.197,1.181-2.508,2.244-3.792,3.333
			c-1.294,1.078-2.525,2.225-3.886,3.224l-3.999,3.09c-1.334,1.026-2.757,1.91-4.128,2.872c-2.707,1.984-5.67,3.537-8.535,5.241
			l-4.495,2.174l-1.123,0.542l-1.161,0.452l-2.321,0.906c-6.194,2.402-12.691,3.942-19.323,4.836
			c-6.629,0.946-13.39,1.35-20.207,1.898c-6.81,0.584-13.701,1.338-20.45,2.954c-3.355,0.866-6.713,1.702-10,2.978
			c-3.276,1.256-6.451,2.852-9.367,4.867c-2.92,2.004-5.566,4.435-7.786,7.202c-2.226,2.765-4.021,5.852-5.401,9.084
			c-2.734,6.499-3.883,13.444-4.375,20.301c-0.477,6.877-0.302,13.739,0.057,20.557c0.164,3.414,0.482,6.821,0.516,10.152
			c0.03,3.346-0.202,6.691-0.912,9.92c-0.74,3.209-1.975,6.311-3.954,8.921c-1.942,2.637-4.556,4.743-7.414,6.449
			c-5.775,3.385-12.304,5.485-18.689,7.806c-3.208,1.144-6.415,2.304-9.591,3.554c-1.57,0.687-3.16,1.327-4.711,2.053l-2.283,1.189
			c-0.379,0.201-0.764,0.39-1.138,0.6l-1.087,0.696c-2.891,1.793-5.754,3.977-7.416,7.087l-0.572,1.179
			c-0.16,0.405-0.25,0.84-0.376,1.258c-0.149,0.415-0.165,0.858-0.207,1.294l-0.06,0.654l0.049,0.656
			c0.139,1.744,0.772,3.437,1.893,4.802c0.066,0.08,0.184,0.093,0.265,0.029c0.082-0.065,0.096-0.185,0.031-0.267l-0.012-0.014
			c-1.019-1.288-1.609-2.943-1.702-4.58l-0.036-0.618l0.07-0.615c0.048-0.41,0.067-0.824,0.218-1.214
			c0.129-0.392,0.217-0.798,0.376-1.178l0.564-1.108c1.626-2.925,4.445-5.013,7.315-6.714l1.075-0.661
			c0.371-0.199,0.755-0.379,1.131-0.57l2.267-1.128c1.543-0.687,3.127-1.29,4.686-1.939
			C191.913,220.404,195.13,219.308,198.356,218.225z"/>
	</g>
</g>
<g id="Rainbow">
	<g>
		<g>
			<path style="fill:#92E3A9;stroke:#263238;stroke-linecap:round;stroke-miterlimit:10;" d="M217.822,255.984
				c7.481,0,13.563,5.924,13.849,13.335h13.777c-0.35-14.935-12.558-26.936-27.577-26.936c-15.019,0-27.226,12.001-27.577,26.936
				h13.679C204.26,261.909,210.341,255.984,217.822,255.984z"/>
			<path style="fill:#FFFFFF;stroke:#263238;stroke-miterlimit:10;" d="M217.822,255.984c7.481,0,13.563,5.924,13.849,13.335h10.195
				c-0.349-12.956-10.954-23.354-23.995-23.354c-13.041,0-23.646,10.398-23.995,23.354h10.097
				C204.26,261.909,210.341,255.984,217.822,255.984z"/>
			<path style="fill:#92E3A9;stroke:#263238;stroke-linecap:round;stroke-miterlimit:10;" d="M217.822,255.984
				c7.481,0,13.563,5.924,13.849,13.335h6.809c-0.348-11.086-9.438-19.968-20.609-19.968c-11.171,0-20.261,8.882-20.609,19.968
				h6.711C204.26,261.909,210.341,255.984,217.822,255.984z"/>
			<path style="fill:#FFFFFF;stroke:#263238;stroke-miterlimit:10;" d="M217.822,255.984c7.481,0,13.563,5.924,13.849,13.335h3.477
				c-0.348-9.253-7.939-16.653-17.277-16.653c-9.338,0-16.928,7.4-17.277,16.653h3.379
				C204.26,261.909,210.341,255.984,217.822,255.984z"/>
		</g>
		<g>
			
				<ellipse transform="matrix(0.7415 -0.6709 0.6709 0.7415 -135.8075 196.7209)" style="fill:#FFFFFF;stroke:#263238;stroke-miterlimit:10;" cx="187.411" cy="274.618" rx="7.935" ry="7.935"/>
			
				<ellipse transform="matrix(0.2305 -0.9731 0.9731 0.2305 -111.6309 411.4912)" style="fill:#FFFFFF;stroke:#263238;stroke-miterlimit:10;" cx="204.371" cy="276.33" rx="7.935" ry="7.935"/>
			<path style="fill:#FFFFFF;stroke:#263238;stroke-miterlimit:10;" d="M204.03,271.57c0,3.14-2.545,5.685-5.685,5.685
				s-5.685-2.545-5.685-5.685c0-3.14,2.546-5.685,5.685-5.685S204.03,268.43,204.03,271.57z"/>
			<circle style="fill:#FFFFFF;stroke:#263238;stroke-miterlimit:10;" cx="199.169" cy="279.863" r="8.377"/>
			<path style="fill:#FFFFFF;stroke:#263238;stroke-miterlimit:10;" d="M197.297,283.487c0,3.14-2.545,5.685-5.685,5.685
				c-3.14,0-5.685-2.545-5.685-5.685c0-3.14,2.545-5.685,5.685-5.685C194.752,277.802,197.297,280.347,197.297,283.487z"/>
		</g>
		<g>
			
				<ellipse transform="matrix(0.2305 -0.9731 0.9731 0.2305 -90.5701 434.7017)" style="fill:#FFFFFF;stroke:#263238;stroke-miterlimit:10;" cx="229.577" cy="274.618" rx="7.935" ry="7.935"/>
			
				<ellipse transform="matrix(0.7071 -0.7071 0.7071 0.7071 -123.1858 255.263)" style="fill:#FFFFFF;stroke:#263238;stroke-miterlimit:10;" cx="246.537" cy="276.33" rx="7.935" ry="7.935"/>
			<path style="fill:#FFFFFF;stroke:#263238;stroke-miterlimit:10;" d="M246.196,271.57c0,3.14-2.545,5.685-5.685,5.685
				c-3.14,0-5.685-2.545-5.685-5.685c0-3.14,2.545-5.685,5.685-5.685C243.65,265.884,246.196,268.43,246.196,271.57z"/>
			<circle style="fill:#FFFFFF;stroke:#263238;stroke-miterlimit:10;" cx="241.336" cy="279.863" r="8.378"/>
			<path style="fill:#FFFFFF;stroke:#263238;stroke-miterlimit:10;" d="M239.463,283.487c0,3.14-2.545,5.685-5.685,5.685
				c-3.14,0-5.685-2.545-5.685-5.685c0-3.14,2.545-5.685,5.685-5.685C236.918,277.802,239.463,280.347,239.463,283.487z"/>
		</g>
	</g>
</g>
<g id="Ballons">
	<g>
		<path style="fill:#92E3A9;stroke:#263238;stroke-linecap:round;stroke-miterlimit:10;" d="M192.136,113.832
			c-5.138,14.454-22.226,31.088-34.465,26.737c-12.24-4.35-14.996-28.037-9.858-42.492c5.138-14.454,19.225-22.645,31.464-18.294
			C191.517,84.134,197.274,99.378,192.136,113.832z"/>
		<path style="fill:none;stroke:#263238;stroke-linecap:round;stroke-miterlimit:10;" d="M157.671,140.57
			c0,0,2.067,6.343-8.685,13.063c-10.752,6.72-24.64,14.336-21.952,24.192c2.688,9.856,12.544,11.2,21.504,4.928
			c8.96-6.272,22.848-5.376,19.712,3.136c-3.136,8.512-4.032,17.92,5.376,15.232"/>
		<path style="opacity:0.62;fill:#FFFFFF;" d="M184.898,92.567c0,3.925-2.828,7.107-6.317,7.107c-3.489,0-6.317-3.182-6.317-7.107
			c0-3.925,2.828-7.107,6.317-7.107C182.07,85.46,184.898,88.642,184.898,92.567z"/>
	</g>
	<g>
		<g>
			<path style="fill:#92E3A9;stroke:#263238;stroke-linecap:round;stroke-miterlimit:10;" d="M283.556,207.484
				c4.226,9.595,3.534,25.879-4.591,29.457c-8.125,3.579-20.606-6.903-24.832-16.498c-4.226-9.595-1.065-20.274,7.059-23.853
				C269.318,193.011,279.33,197.888,283.556,207.484z"/>
			<path style="opacity:0.62;fill:#FFFFFF;" d="M269.983,200.307c1.841,1.951,1.928,4.859,0.193,6.496
				c-1.734,1.636-4.633,1.381-6.474-0.57c-1.841-1.951-1.928-4.859-0.193-6.496C265.244,198.101,268.142,198.356,269.983,200.307z"
				/>
		</g>
		<path style="fill:none;stroke:#263238;stroke-linecap:round;stroke-miterlimit:10;" d="M278.965,236.941
			c1.192,3.651,3.168,6.751,7.179,7.553c2.652,0.531,5.473,0.347,7.968,1.391c7.853,3.283,0.669,9.257-3.105,11.906
			c-4.286,3.008-9.497,5.564-9.09,11.67c0.455,6.829,10.472,11.383,16.391,2.732c5.919-8.651,8.195-19.123,16.846-18.212
			c8.651,0.911,8.195,9.561,13.659,5.464"/>
	</g>
</g>
<g id="Bird">
	<g>
		<circle style="fill:#FFFFFF;stroke:#263238;stroke-linecap:round;stroke-miterlimit:10;" cx="200.544" cy="163.691" r="13.322"/>
		<circle style="fill:#263238;" cx="207.065" cy="156.925" r="2.1"/>
		<polygon style="fill:#FFFFFF;stroke:#263238;stroke-linecap:round;stroke-miterlimit:10;" points="220.848,157.232 
			213.939,155.883 216.226,162.541 		"/>
		<polyline style="fill:none;stroke:#263238;stroke-linecap:round;stroke-miterlimit:10;" points="200.544,177.012 200.544,192.63 
			205.805,192.63 		"/>
		<polyline style="fill:none;stroke:#263238;stroke-linecap:round;stroke-miterlimit:10;" points="196.284,176.388 196.284,192.63 
			190.123,192.63 		"/>
		<path style="fill:#FFFFFF;stroke:#263238;stroke-linecap:round;stroke-miterlimit:10;" d="M197.404,160.146
			c0,0-3.641-5.601-8.121-5.881c-4.481-0.28-12.882,1.12-11.201,2.8c1.68,1.68,5.321,1.4,5.321,1.4s-3.641,3.36-0.56,4.201
			c3.08,0.84,5.881-1.12,5.881-1.12s-0.84,2.8,1.4,3.36c2.24,0.56,4.201-3.36,4.201-3.36s-0.28,3.64,0.84,3.64
			c1.12,0,3.08-1.68,3.08-1.68"/>
	</g>
</g>
<g id="Rocket">
	<g>
		<path style="fill:#92E3A9;" d="M266.975,171.786c0.77-0.978,1.198-3.153,0.221-3.922c-0.978-0.77-2.991,0.158-3.761,1.135
			c-0.77,0.978-0.802,4.113-0.536,4.323C263.107,173.485,266.205,172.763,266.975,171.786z"/>
		<path style="fill:#92E3A9;" d="M289.545,186.395c1.72-2.184,2.678-7.045,0.494-8.764c-2.184-1.72-6.684,0.352-8.404,2.536
			c-1.72,2.184-1.792,9.191-1.198,9.659C280.903,190.193,287.826,188.58,289.545,186.395z"/>
		<path style="fill:#92E3A9;" d="M303.737,200.729c0.77-0.978,1.199-3.153,0.221-3.922c-0.978-0.77-2.991,0.158-3.761,1.135
			c-0.77,0.978-0.802,4.113-0.536,4.322C299.87,202.428,302.968,201.707,303.737,200.729z"/>
		<g>
			<path style="fill:#263238;stroke:#263238;stroke-miterlimit:10;" d="M274.58,158.9l21.137-1.157l-7.34,9.323l-15.979-3.681
				L274.58,158.9z"/>
			<path style="fill:#FFFFFF;stroke:#263238;stroke-miterlimit:10;" d="M269.978,169.925l-5.422-4.268l15.605-22.178
				c0.107-0.165,0.228-0.319,0.366-0.46c1.576-1.609,7.763-6.067,9.774-4.484l0,0c2.01,1.583-0.872,8.643-2.065,10.553
				c-0.105,0.167-0.226,0.321-0.361,0.464L269.978,169.925z"/>
			<path style="fill:#263238;stroke:#263238;stroke-miterlimit:10;" d="M283.702,140.529l6.208,4.888
				c0.977-2.693,1.66-5.881,0.39-6.881C289.03,137.535,286.091,138.947,283.702,140.529z"/>
			<polygon style="fill:#263238;stroke:#263238;stroke-miterlimit:10;" points="267.847,160.98 264.556,165.656 269.978,169.925 
				273.752,165.628 			"/>
		</g>
		<g>
			<path style="fill:#263238;stroke:#263238;stroke-miterlimit:10;" d="M311.167,187.706l-3.835-20.818l-7.34,9.323l7.328,14.669
				L311.167,187.706z"/>
			<path style="fill:#FFFFFF;stroke:#263238;stroke-miterlimit:10;" d="M301.531,194.767l5.422,4.269l17.896-20.373
				c0.135-0.143,0.257-0.297,0.361-0.464c1.194-1.909,4.076-8.97,2.065-10.553l0,0c-2.01-1.583-8.198,2.875-9.774,4.484
				c-0.138,0.141-0.259,0.295-0.366,0.46L301.531,194.767z"/>
			<polygon style="fill:#263238;stroke:#263238;stroke-miterlimit:10;" points="310.727,194.74 306.953,199.036 301.531,194.767 
				304.822,190.091 			"/>
			<path style="fill:#263238;stroke:#263238;stroke-miterlimit:10;" d="M320.677,169.64l6.208,4.888
				c0.977-2.693,1.661-5.881,0.39-6.882C326.005,166.646,323.066,168.059,320.677,169.64z"/>
		</g>
		<path style="fill:#FFFFFF;stroke:#263238;stroke-miterlimit:10;" d="M298.832,180.51l-14.199-11.179l33.26-48.419
			c0.281-0.432,0.598-0.835,0.959-1.204c4.128-4.213,20.331-15.889,25.597-11.744l0,0c5.265,4.146-2.282,22.637-5.409,27.638
			c-0.273,0.437-0.591,0.84-0.945,1.214L298.832,180.51z"/>
		<path style="fill:#92E3A9;stroke:#263238;stroke-miterlimit:10;" d="M309.39,152.534L309.39,152.534
			c-3.426-2.697-4.647-6.861-2.728-9.298l14.481-18.393c1.919-2.438,6.253-2.228,9.679,0.47l0,0
			c3.426,2.697,4.648,6.861,2.728,9.298l-14.481,18.393C317.149,155.441,312.816,155.231,309.39,152.534z"/>
		<polygon style="fill:#263238;stroke:#263238;stroke-miterlimit:10;" points="291.507,185.448 281.529,177.592 284.868,169.033 
			299.067,180.212 		"/>
		<g>
			<path style="fill:#263238;" d="M329.525,135.836c-1.884,2.393-5.352,2.806-7.745,0.922c-2.393-1.884-2.806-5.352-0.922-7.745
				c1.884-2.393,5.352-2.806,7.745-0.922C330.997,129.975,331.409,133.442,329.525,135.836z"/>
			<path style="fill:#92E3A9;stroke:#263238;stroke-miterlimit:10;" d="M329.113,136.359c-1.884,2.393-5.352,2.806-7.745,0.922
				c-2.393-1.884-2.806-5.352-0.922-7.745c1.884-2.393,5.352-2.806,7.745-0.922C330.585,130.497,330.998,133.965,329.113,136.359z"
				/>
			<path style="fill:#263238;" d="M327.727,129.203c2.192,1.726,2.609,4.864,0.985,7.103c0.045-0.053,0.093-0.101,0.136-0.156
				c1.769-2.247,1.382-5.503-0.865-7.273c-2.247-1.769-5.503-1.382-7.273,0.865c-0.043,0.055-0.079,0.113-0.12,0.169
				C322.386,127.809,325.535,127.477,327.727,129.203z"/>
			<path style="fill:#FFFFFF;stroke:#263238;stroke-miterlimit:10;" d="M328.015,135.494c-1.407,1.787-3.996,2.095-5.782,0.688
				c-1.787-1.407-2.095-3.995-0.688-5.782s3.996-2.095,5.782-0.688C329.113,131.118,329.422,133.707,328.015,135.494z"/>
			<path style="fill:#263238;" d="M322.471,135.88c1.736,1.367,4.225,1.111,5.655-0.543c-0.037,0.052-0.071,0.106-0.111,0.157
				c-1.407,1.787-3.996,2.095-5.782,0.688c-1.787-1.407-2.095-3.996-0.688-5.782c0.04-0.051,0.085-0.096,0.127-0.145
				C320.4,132.033,320.735,134.513,322.471,135.88z"/>
		</g>
		<g>
			<path style="fill:#263238;" d="M321.096,146.541c-1.884,2.393-5.352,2.806-7.746,0.922c-2.393-1.884-2.806-5.352-0.922-7.745
				c1.884-2.393,5.352-2.806,7.745-0.922C322.568,140.68,322.981,144.148,321.096,146.541z"/>
			<path style="fill:#92E3A9;stroke:#263238;stroke-miterlimit:10;" d="M320.685,147.064c-1.884,2.393-5.352,2.806-7.745,0.922
				c-2.393-1.884-2.806-5.352-0.922-7.745c1.884-2.393,5.352-2.806,7.745-0.922C322.156,141.203,322.569,144.671,320.685,147.064z"
				/>
			<path style="fill:#263238;" d="M319.298,139.908c2.192,1.726,2.609,4.865,0.985,7.103c0.045-0.053,0.093-0.101,0.136-0.156
				c1.769-2.247,1.382-5.503-0.865-7.273c-2.247-1.769-5.503-1.382-7.273,0.865c-0.043,0.055-0.079,0.113-0.12,0.169
				C313.958,138.514,317.106,138.182,319.298,139.908z"/>
			<path style="fill:#FFFFFF;stroke:#263238;stroke-miterlimit:10;" d="M319.586,146.199c-1.407,1.787-3.996,2.095-5.782,0.688
				c-1.787-1.407-2.095-3.995-0.688-5.782c1.407-1.787,3.995-2.095,5.782-0.688C320.685,141.824,320.993,144.412,319.586,146.199z"
				/>
			<path style="fill:#263238;" d="M314.042,146.585c1.736,1.367,4.225,1.111,5.656-0.543c-0.037,0.052-0.071,0.106-0.111,0.157
				c-1.407,1.787-3.996,2.095-5.782,0.688c-1.787-1.407-2.095-3.995-0.688-5.782c0.04-0.051,0.085-0.096,0.127-0.145
				C311.971,142.738,312.306,145.218,314.042,146.585z"/>
		</g>
		<path style="fill:#263238;stroke:#263238;stroke-miterlimit:10;" d="M330.176,111.314l14.365,11.31
			c1.983-6.251,2.963-12.737,0.142-14.958l0,0C341.862,105.445,335.787,107.92,330.176,111.314z"/>
		<line style="fill:#FCFCFC;" x1="294.168" y1="152.291" x2="293.97" y2="152.58"/>
		<line style="fill:#9BA7AC;" x1="294.117" y1="152.365" x2="293.97" y2="152.58"/>
		<line style="fill:#697B82;" x1="294.033" y1="152.488" x2="293.97" y2="152.58"/>
	</g>
</g>
<g id="Sun">
	<g>
		<polygon style="fill:#263238;stroke:#263238;stroke-miterlimit:10;" points="408.009,91.383 413.663,84.507 405.051,82.269 
			405.58,73.386 397.297,76.63 392.502,69.138 387.707,76.63 379.424,73.386 379.953,82.269 371.341,84.507 376.995,91.383 
			371.341,98.258 379.954,100.496 379.424,109.379 387.708,106.136 392.502,113.628 397.297,106.135 405.58,109.379 
			405.051,100.496 413.663,98.258 		"/>
		
			<ellipse transform="matrix(0.9735 -0.2285 0.2285 0.9735 -10.4968 92.1201)" style="fill:#92E3A9;stroke:#263238;stroke-linecap:round;stroke-miterlimit:10;" cx="392.502" cy="91.383" rx="12.406" ry="12.406"/>
	</g>
</g>
<g id="Spaceship">
	<g>
		
			<ellipse style="fill:#FFFFFF;stroke:#263238;stroke-linecap:round;stroke-miterlimit:10;" cx="333.61" cy="55.869" rx="11.168" ry="9.307"/>
		
			<ellipse style="fill:#92E3A9;stroke:#263238;stroke-linecap:round;stroke-miterlimit:10;" cx="333.61" cy="54.858" rx="23.932" ry="8.243"/>
		<path style="fill:#FFFFFF;stroke:#263238;stroke-linecap:round;stroke-miterlimit:10;" d="M344.778,49.008
			c0,5.14-5,5.85-11.168,5.85c-6.168,0-11.168-0.71-11.168-5.85c0-5.14,5-9.307,11.168-9.307
			C339.778,39.701,344.778,43.868,344.778,49.008z"/>
		<path style="fill:#FFFFFF;stroke:#263238;stroke-linecap:round;stroke-miterlimit:10;" d="M320.445,56.512
			c0,0.844-1.141,1.529-2.548,1.529c-1.407,0-2.548-0.684-2.548-1.529s1.141-1.529,2.548-1.529
			C319.304,54.983,320.445,55.667,320.445,56.512z"/>
		<path style="fill:#FFFFFF;stroke:#263238;stroke-linecap:round;stroke-miterlimit:10;" d="M332.063,59.161
			c0,0.844-1.278,1.529-2.854,1.529c-1.576,0-2.854-0.684-2.854-1.529s1.278-1.529,2.854-1.529
			C330.786,57.633,332.063,58.317,332.063,59.161z"/>
		<path style="fill:#FFFFFF;stroke:#263238;stroke-linecap:round;stroke-miterlimit:10;" d="M346.739,57.429
			c0,0.788-1.232,1.427-2.752,1.427c-1.52,0-2.752-0.639-2.752-1.427c0-0.788,1.232-1.427,2.752-1.427
			C345.507,56.002,346.739,56.641,346.739,57.429z"/>
		<path style="fill:#FFFFFF;stroke:#263238;stroke-linecap:round;stroke-miterlimit:10;" d="M353.058,52.435
			c0,0.507-0.776,0.917-1.732,0.917c-0.957,0-1.733-0.411-1.733-0.917c0-0.507,0.776-0.917,1.733-0.917
			C352.282,51.518,353.058,51.929,353.058,52.435z"/>
		<path style="fill:#FFFFFF;stroke:#263238;stroke-linecap:round;stroke-miterlimit:10;" d="M319.833,51.314
			c0,0.507-0.776,0.917-1.733,0.917c-0.957,0-1.733-0.411-1.733-0.917c0-0.507,0.776-0.917,1.733-0.917
			C319.058,50.397,319.833,50.807,319.833,51.314z"/>
	</g>
</g>
<g id="Moon">
	<g>
		<circle style="fill:#FFFFFF;stroke:#263238;stroke-linecap:round;stroke-miterlimit:10;" cx="250.063" cy="79.041" r="18.726"/>
		<path style="fill:#FFFFFF;stroke:#263238;stroke-linecap:round;stroke-miterlimit:10;" d="M241.6,75.404
			c0,1.07-0.867,1.937-1.937,1.937c-1.07,0-1.937-0.867-1.937-1.937c0-1.07,0.867-1.937,1.937-1.937
			C240.733,73.467,241.6,74.334,241.6,75.404z"/>
		<path style="fill:#FFFFFF;stroke:#263238;stroke-linecap:round;stroke-miterlimit:10;" d="M256.061,69.981
			c0,1.925-1.561,3.486-3.486,3.486s-3.486-1.561-3.486-3.486c0-1.925,1.561-3.486,3.486-3.486S256.061,68.055,256.061,69.981z"/>
		<path style="fill:#FFFFFF;stroke:#263238;stroke-linecap:round;stroke-miterlimit:10;" d="M248.572,86.508
			c0,1.07-0.867,1.937-1.937,1.937c-1.07,0-1.937-0.867-1.937-1.937c0-1.07,0.867-1.937,1.937-1.937
			C247.705,84.571,248.572,85.438,248.572,86.508z"/>
		<circle style="fill:#FFFFFF;stroke:#263238;stroke-linecap:round;stroke-miterlimit:10;" cx="264.583" cy="77.34" r="2.066"/>
		<path style="fill:#FFFFFF;stroke:#263238;stroke-linecap:round;stroke-miterlimit:10;" d="M259.418,91.027
			c0,0.713-0.578,1.291-1.291,1.291s-1.291-0.578-1.291-1.291c0-0.713,0.578-1.291,1.291-1.291S259.418,90.314,259.418,91.027z"/>
	</g>
</g>
<g id="Planet">
	<g>
		
			<ellipse transform="matrix(0.9988 -0.0483 0.0483 0.9988 -7.2912 18.9047)" style="fill:#FFFFFF;stroke:#263238;stroke-linecap:round;stroke-miterlimit:10;" cx="387.844" cy="160.443" rx="23.379" ry="23.378"/>
		<g>
			<path style="fill:#263238;stroke:#263238;stroke-miterlimit:10;" d="M386.432,183.782l24.758-22.076
				c0.139-2.571-0.142-5.208-0.905-7.82c-0.108-0.368-0.225-0.731-0.349-1.09l-25.853,30.725
				C384.857,183.648,385.641,183.734,386.432,183.782z"/>
			<path style="fill:#263238;stroke:#263238;stroke-miterlimit:10;" d="M364.471,161.073c2.903-5.292,8.246-14.869,11.565-20.809
				C368.686,144.557,364.237,152.577,364.471,161.073z"/>
			<path style="fill:#263238;stroke:#263238;stroke-miterlimit:10;" d="M379.467,167.461l-8.38,9.285
				c0.931,0.955,1.939,1.823,3.01,2.601L379.467,167.461z"/>
			<path style="fill:#263238;stroke:#263238;stroke-miterlimit:10;" d="M408.695,149.876c-0.707-1.398-1.542-2.703-2.49-3.904
				l-12.831,12.611L408.695,149.876z"/>
			<path style="fill:#263238;stroke:#263238;stroke-miterlimit:10;" d="M394.247,137.962c-1.611-0.46-3.278-0.753-4.976-0.857
				l-21.46,35.395c0.163,0.272,0.332,0.541,0.505,0.805L394.247,137.962z"/>
		</g>
		<path style="fill:#FFFFFF;stroke:#263238;stroke-linecap:round;stroke-miterlimit:10;" d="M406.663,146.582
			c0.496,0.673,0.957,1.376,1.383,2.108c3.083,0.145,5.057,0.824,5.421,2.069c0.98,3.355-10.085,9.54-24.716,13.815
			c-14.63,4.275-27.285,5.021-28.266,1.666c-0.389-1.331,1.125-3.109,4.001-5.036c-0.027-0.824-0.013-1.643,0.046-2.455
			c-6.936,3.742-10.961,7.529-10.173,10.226c1.391,4.759,17.235,4.316,35.389-0.988c18.154-5.305,31.744-13.463,30.353-18.222
			C419.335,147.142,414.175,146.103,406.663,146.582z"/>
	</g>
</g>
<g id="Ship">
	<g>
		<g>
			<g>
				<path style="fill:#FFFFFF;stroke:#263238;stroke-linecap:round;stroke-miterlimit:10;" d="M361.823,250.737
					c0,0,15.575-17.142,23.221-19.653c7.646-2.51,17.537,3.755,26.488,9.34c8.951,5.586,15.801,6.462,9.397,9.539
					c-6.405,3.077-15.734-1.681-15.734-1.681s4.66,5.127,1.422,5.649c-3.238,0.522-10.683-5.626-10.683-5.626
					s5.15,4.601-0.234,4.894c-5.384,0.293-11.249-4.385-11.249-4.385s1.161,4.03-0.872,4.102c-2.033,0.072-8.803-4.268-8.803-4.268
					s1.426,2.901-2.303,3.949C368.746,253.646,361.823,250.737,361.823,250.737z"/>
				<path style="fill:#FFFFFF;stroke:#263238;stroke-linecap:round;stroke-miterlimit:10;" d="M397.005,238.293
					c0,0-0.382,3.576-3.396,4.701c-2.557,0.954-7.975-3.89-7.975-3.89s2.177,3.994-0.27,3.877c-2.447-0.117-6.549-0.989-6.549-0.989
					s1.993,1.66-0.193,3.162c-2.186,1.502-7.493,1.08-7.493,1.08"/>
			</g>
			<g>
				
					<rect x="369.777" y="208.824" transform="matrix(-0.9364 -0.3511 0.3511 -0.9364 648.5286 560.6335)" style="fill:#FFFFFF;stroke:#263238;stroke-linecap:round;stroke-miterlimit:10;" width="10.614" height="25.41"/>
				
					<rect x="373.198" y="209.445" transform="matrix(-0.9364 -0.3511 0.3511 -0.9364 658.3575 544.1631)" style="fill:#263238;stroke:#263238;stroke-miterlimit:10;" width="10.614" height="5.918"/>
				<path style="fill:#FFFFFF;stroke:#263238;stroke-linecap:round;stroke-miterlimit:10;" d="M383.501,249.429l2.231-5.007
					c0.606-1.36-0.059-2.949-1.453-3.472l-1.635-0.613c-1.336-0.501-2.014-1.991-1.513-3.327l0.444-1.184
					c0.501-1.336-0.176-2.826-1.513-3.327l-17.749-6.654c-1.336-0.501-2.826,0.176-3.327,1.513l-4.273,11.398
					c-0.505,1.346,0.186,2.846,1.538,3.337l24.008,8.714C381.534,251.269,382.949,250.667,383.501,249.429z"/>
				<path style="fill:#92E3A9;stroke:#263238;stroke-linecap:round;stroke-miterlimit:10;" d="M384.291,254.695l-8.376,8.928
					c-2.724,2.904-6.927,3.885-10.655,2.487l-20.285-7.605c-3.843-1.441-6.392-5.111-6.4-9.216l-0.026-14.148L384.291,254.695z"/>
				<path style="fill:#FFFFFF;stroke:#263238;stroke-linecap:round;stroke-miterlimit:10;" d="M336.705,236.855l47.587,17.84
					c1.913,0.717,4.045-0.252,4.762-2.165l0,0c0.717-1.913-0.252-4.045-2.165-4.762l-47.587-17.841
					c-1.913-0.717-4.045,0.252-4.762,2.165l0,0C333.823,234.006,334.792,236.138,336.705,236.855z"/>
				<path style="fill:#FFFFFF;stroke:#263238;stroke-width:2;stroke-linecap:round;stroke-miterlimit:10;" d="M367.462,234.989
					c0.624-1.663,2.478-2.506,4.141-1.883c1.663,0.624,2.506,2.478,1.883,4.141c-0.624,1.663-2.478,2.506-4.141,1.883
					C367.681,238.506,366.838,236.652,367.462,234.989z"/>
			</g>
			<g>
				<path style="fill:#FFFFFF;stroke:#263238;stroke-linecap:round;stroke-miterlimit:10;" d="M362.117,252.909
					c0,0,23.002-2.712,30.418,0.412c7.417,3.124,10.768,14.342,13.856,24.431c3.088,10.089,7.681,15.246,0.829,13.364
					c-6.852-1.882-10.768-11.594-10.768-11.594s0.151,6.927-2.635,5.195c-2.786-1.731-4.368-11.256-4.368-11.256
					s0.866,6.852-3.388,3.539s-5.61-10.691-5.61-10.691s-1.769,3.802-3.35,2.522c-1.581-1.28-3.841-8.997-3.841-8.997
					s-0.828,3.125-4.329,1.469C365.431,259.647,362.117,252.909,362.117,252.909z"/>
				<path style="fill:#FFFFFF;stroke:#263238;stroke-linecap:round;stroke-miterlimit:10;" d="M396.829,266.609
					c0,0-2.635,2.447-5.647,1.318c-2.556-0.958-3.464-8.169-3.464-8.169s-0.978,4.442-2.748,2.748
					c-1.77-1.694-4.292-5.044-4.292-5.044s0.414,2.56-2.221,2.259c-2.635-0.301-6.363-4.103-6.363-4.103"/>
			</g>
		</g>
		<path style="fill:none;stroke:#263238;stroke-linecap:round;stroke-miterlimit:10;" d="M378.264,201.596
			c-0.748,1.996,0.263,4.221,2.259,4.969c1.996,0.748,4.221-0.263,4.969-2.259c0.748-1.996-0.263-4.221-2.259-4.969
			C381.237,198.588,379.012,199.6,378.264,201.596z"/>
		<path style="fill:none;stroke:#263238;stroke-linecap:round;stroke-miterlimit:10;" d="M388.089,200.126
			c-1.06,2.828,0.373,5.98,3.201,7.04c2.828,1.06,5.979-0.373,7.04-3.201c1.06-2.828-0.373-5.98-3.201-7.04
			C392.301,195.866,389.149,197.299,388.089,200.126z"/>
		<path style="fill:none;stroke:#263238;stroke-linecap:round;stroke-miterlimit:10;" d="M401.944,208.069
			c-1.933,5.156,0.68,10.904,5.836,12.837s10.904-0.68,12.837-5.836c1.933-5.157-0.68-10.904-5.836-12.837
			C409.624,200.299,403.877,202.912,401.944,208.069z"/>
		<path style="fill:none;stroke:#263238;stroke-linecap:round;stroke-miterlimit:10;" d="M426.885,217.591
			c-1.278,3.41,0.449,7.211,3.859,8.489c3.41,1.278,7.211-0.449,8.489-3.859c1.278-3.41-0.45-7.211-3.859-8.489
			C431.964,212.453,428.164,214.181,426.885,217.591z"/>
	</g>
</g>
<g id="Stars">
	<g>
		<polygon style="fill:#263238;stroke:#263238;stroke-miterlimit:10;" points="224.447,121.835 221.82,125.438 223.298,129.645 
			219.06,128.26 215.516,130.966 215.523,126.507 211.854,123.972 216.097,122.602 217.374,118.329 219.989,121.941 		"/>
		<polygon style="fill:#92E3A9;stroke:#263238;stroke-linecap:round;stroke-miterlimit:10;" points="305.966,70.878 301.895,72.698 
			301.086,77.083 298.097,73.774 293.677,74.361 295.9,70.495 293.976,66.472 298.34,67.392 301.571,64.32 302.044,68.754 		"/>
		<polygon style="fill:#92E3A9;stroke:#263238;stroke-linecap:round;stroke-miterlimit:10;" points="429.814,124.338 
			425.743,126.158 424.935,130.544 421.946,127.235 417.525,127.821 419.748,123.956 417.825,119.933 422.188,120.853 
			425.42,117.78 425.893,122.214 		"/>
		<polygon style="fill:#92E3A9;stroke:#263238;stroke-linecap:round;stroke-miterlimit:10;" points="202.646,58.224 198.575,60.045 
			197.767,64.43 194.778,61.121 190.357,61.708 192.581,57.842 190.657,53.819 195.02,54.739 198.252,51.666 198.725,56.1 		"/>
		<polygon style="fill:#92E3A9;stroke:#263238;stroke-linecap:round;stroke-miterlimit:10;" points="327.061,218.531 
			322.99,220.352 322.182,224.737 319.193,221.428 314.772,222.014 316.995,218.149 315.072,214.126 319.435,215.046 
			322.667,211.973 323.14,216.407 		"/>
		<polygon style="fill:#263238;stroke:#263238;stroke-miterlimit:10;" points="357.614,189.143 353.543,190.964 352.735,195.349 
			349.745,192.04 345.325,192.627 347.548,188.761 345.624,184.738 349.988,185.658 353.219,182.585 353.693,187.02 		"/>
		<polygon style="fill:#263238;stroke:#263238;stroke-miterlimit:10;" points="242.075,215.549 237.854,221.117 240.047,227.751 
			233.447,225.457 227.816,229.593 227.958,222.607 222.284,218.53 228.972,216.506 231.097,209.85 235.088,215.585 		"/>
	</g>
</g>
<g id="Character_1_">
	<g>
		<path style="fill:#263238;stroke:#263238;stroke-linecap:round;stroke-miterlimit:10;" d="M80.31,285.091
			c0,0,6.719,6.719,5.973,7.964c-0.747,1.244-6.47-5.724-18.664,3.484c-12.194,9.208-4.231,21.9,0.995,24.886
			c5.226,2.986,0,4.977-0.249,12.443c-0.249,7.466,4.231,15.429,14.683,16.673c10.452,1.244,15.678-5.973,20.158-9.208
			c4.479-3.235,10.203,1.991,22.646,2.986s11.447-6.719,20.158-10.701c8.71-3.982,19.909-3.733,21.651-11.199
			c1.742-7.466-5.226-11.448-1.991-16.922c3.235-5.475,8.212-12.941,5.475-18.913c-2.737-5.973-6.47-2.24-8.959-6.968
			c-2.489-4.728,2.986-5.475-1.244-10.95c-4.231-5.475-11.447-3.733-11.447-3.733s3.235,13.687-6.47,20.406
			c-9.706,6.719-24.388,7.466-31.356,2.737c-6.968-4.728-12.941-9.705-12.941-9.705L80.31,285.091z"/>
		<g>
			<path style="fill:#263238;stroke:#263238;stroke-linecap:round;stroke-miterlimit:10;" d="M118.551,301.01
				c0,0-27.228,11.159-34.816,18.301c-7.588,7.142-3.794,11.605-2.901,12.945c0.893,1.339,10.043,37.271,12.275,42.628
				c2.232,5.356,2.678,8.927,10.043,11.605l-8.035,19.194c0,0-32.361-6.696-40.396,4.24c-8.035,10.936-4.24,22.988,3.348,28.344
				c7.588,5.356,64.946,20.086,64.946,20.086s83.024-18.524,96.415-22.541c13.391-4.017,18.97-18.078,15.846-24.104
				c-3.124-6.026-11.829-7.811-21.202-7.811c-9.374,0-29.237,0.446-29.237,0.446l-5.803-26.112c0,0,8.704-68.07,7.142-74.543
				c-1.562-6.472-7.811-6.919-15.623-8.258c-7.811-1.339-22.541-2.232-22.541-2.232L118.551,301.01z"/>
			<path style="fill:#92E3A9;stroke:#263238;stroke-linecap:round;stroke-miterlimit:10;" d="M141.529,416.737l2.986,8.71
				c0,0,16.176-5.724,24.886-10.452c6.276-3.407,12.533-8.222,15.551-10.654c-0.068,0.002-0.116,0.003-0.116,0.003l-5.803-26.112
				c0,0,8.704-68.07,7.142-74.543c-1.562-6.472-7.811-6.919-15.623-8.258c-7.811-1.339-22.541-2.232-22.541-2.232l-29.46,7.811
				c0,0-27.228,11.159-34.816,18.301c-7.588,7.142-3.794,11.605-2.901,12.945c0.893,1.339,10.043,37.271,12.275,42.628
				c2.232,5.356,2.678,8.927,10.043,11.605l-8.035,19.194c0,0,3.857,4.833,13.563,8.317c9.705,3.484,30.112,11.448,30.112,11.448
				L141.529,416.737z"/>
			<path style="fill:none;stroke:#263238;stroke-linecap:round;stroke-miterlimit:10;" d="M151.881,381.843
				c0,0-17.838-3.886-25.962-10.067"/>
			<path style="fill:none;stroke:#263238;stroke-linecap:round;stroke-miterlimit:10;" d="M128.568,378.488
				c0,0,8.301,3.002,13.776,4.062"/>
		</g>
		<path style="fill:#FFFFFF;stroke:#263238;stroke-linecap:round;stroke-miterlimit:10;" d="M119.22,294.538
			c0,0-5.356-0.223-5.803,13.837c-0.446,14.06,5.58,23.434,8.035,22.541s6.026-8.481,8.481-8.704
			c2.455-0.223,5.579,1.562,5.579,1.562s-8.034-27.898-10.713-30.353C122.122,290.967,119.22,294.538,119.22,294.538z"/>
		<path style="fill:#FFFFFF;stroke:#263238;stroke-linecap:round;stroke-miterlimit:10;" d="M138.414,323.105
			c0,0,7.142-6.249,8.927-5.579c1.785,0.669,10.266,9.15,10.713,6.249c0.446-2.901-4.687-29.683-8.035-32.585
			c-3.348-2.901-6.472,0.223-6.472,0.223L138.414,323.105z"/>
		<path style="fill:#D9D9D9;stroke:#263238;stroke-linecap:round;stroke-miterlimit:10;" d="M146.225,290.744
			c0,0-4.91,26.559-7.811,32.361c-2.901,5.803-8.035-0.67-12.052-10.49c-4.017-9.82-7.142-18.078-7.142-18.078L146.225,290.744z"/>
		<polygon style="fill:#263238;stroke:#263238;stroke-linecap:round;stroke-miterlimit:10;" points="140.754,297.726 
			125.257,307.732 119.22,294.538 		"/>
		<path style="fill:#263238;stroke:#263238;stroke-linecap:round;stroke-miterlimit:10;" d="M98.725,226.609
			c0,0,1.244-4.479,4.231-4.977c2.986-0.498,4.728-0.498,4.728-0.498s-6.719-8.212,1.244-11.447
			c7.964-3.235,14.932-1.991,25.135,4.728c10.203,6.719,0,14.932-0.498,16.425c-0.498,1.493-12.443,0.498-20.655,3.733
			c-8.212,3.235-11.945,6.47-11.945,6.47S96.236,236.066,98.725,226.609z"/>
		<g>
			<g>
				<path style="fill:#D9D9D9;" d="M133.339,298.677c-10.976,0-24.375-7.135-26.95-8.565c-6.579-3.654-11.429-18.562-13.734-27.121
					c-1.494-5.547-3.146-15.949,2.576-23.287c6.181-7.927,17.438-10.82,25.911-10.884l0.261-0.001
					c7.813,0,14.043,2.617,17.542,7.368c2.431,3.3,3.939,7.279,5.398,11.127c1.485,3.917,3.02,7.968,5.546,11.442
					c2.017,2.771,5.154,9.554,4.124,17.387c-1.006,7.644-2.96,16.211-13.47,21.131C138.553,298.204,136.13,298.677,133.339,298.677z
					"/>
				<path style="fill:#263238;" d="M121.403,229.318c7.649,0,13.735,2.544,17.138,7.164c2.39,3.245,3.82,7.016,5.333,11.008
					c1.497,3.949,3.044,8.031,5.61,11.559c1.973,2.713,5.042,9.352,4.032,17.028c-1.034,7.856-2.903,15.929-13.186,20.743
					c-1.922,0.9-4.274,1.356-6.992,1.356c-10.854,0-24.151-7.082-26.706-8.502c-4.689-2.605-9.607-12.378-13.494-26.814
					c-3.424-12.715,0.089-19.774,2.487-22.85c6.072-7.786,17.164-10.628,25.52-10.691L121.403,229.318 M121.403,228.318
					c-0.088,0-0.177,0-0.266,0.001c-9.424,0.071-20.31,3.392-26.301,11.076c-5.195,6.663-4.746,15.991-2.664,23.725
					c3.106,11.535,7.985,24.101,13.974,27.428c4.731,2.628,17.075,8.627,27.192,8.627c2.691,0,5.225-0.425,7.416-1.45
					c10.426-4.88,12.645-13.088,13.754-21.518c1.109-8.43-2.44-15.307-4.215-17.747c-4.98-6.847-6.009-15.869-10.946-22.572
					C135.416,230.553,128.63,228.318,121.403,228.318L121.403,228.318z"/>
			</g>
			<path style="fill:none;stroke:#263238;stroke-linecap:round;stroke-miterlimit:10;" d="M131.658,255.355
				c0,0,3.328,4.215,5.102,4.215c1.775,0,3.549,1.553,2.662,3.993c-0.887,2.44-3.771,2.884-3.771,2.884"/>
			<path style="fill:none;stroke:#263238;stroke-linecap:round;stroke-miterlimit:10;" d="M143.194,269.109
				c0,0-3.771,8.208-12.423,7.321"/>
			<path style="fill:none;stroke:#263238;stroke-linecap:round;stroke-miterlimit:10;" d="M113.69,266.225
				c0,0,2.218-6.433,8.873-6.211"/>
			<path style="fill:none;stroke:#263238;stroke-linecap:round;stroke-miterlimit:10;" d="M135.43,251.362
				c0,0,2.44-4.88,7.542-2.884"/>
			<g>
				<path style="fill:#263238;" d="M121.997,251.445c1.402,2.25,5.716,9.879,2.998,14.635c-2.667,4.668-6.669,5.647-9.556,5.647
					c-1.229,0-2.472-0.177-3.693-0.526c-3.582-1.023-6.741-6.554-7.585-8.144C107.245,257.269,118.943,252.587,121.997,251.445
					 M122.404,250.233c0,0-16.035,5.514-19.362,12.835c0,0,3.771,7.764,8.43,9.095c1.241,0.354,2.589,0.564,3.968,0.564
					c3.798,0,7.82-1.594,10.424-6.151C129.413,260.365,122.404,250.233,122.404,250.233L122.404,250.233z"/>
			</g>
			<g>
				<path style="fill:#263238;" d="M146.389,237.737c1.151,2.354,4.481,9.994,1.618,14.38c-2.583,3.957-5.971,4.788-8.358,4.788
					c-1.384,0-2.836-0.28-4.2-0.81c-2.907-1.129-5.426-6.119-6.361-8.436C132.348,242.323,143.358,238.661,146.389,237.737
					 M146.902,236.544c0,0-15.272,4.173-18.918,11.034c0,0,2.892,7.815,7.103,9.45c1.392,0.541,2.956,0.877,4.562,0.877
					c3.251,0,6.674-1.38,9.195-5.241C152.61,246.895,146.902,236.544,146.902,236.544L146.902,236.544z"/>
			</g>
			<path style="fill:none;stroke:#263238;stroke-linecap:round;stroke-miterlimit:10;" d="M122.404,250.233
				c0,0,2.811-2.924,5.581-2.655"/>
			<path style="fill:none;stroke:#263238;stroke-linecap:round;stroke-miterlimit:10;" d="M124.074,252.857
				c0,0,1.67-4.533,5.13-2.386"/>
			
				<line style="fill:none;stroke:#263238;stroke-linecap:round;stroke-miterlimit:10;" x1="103.198" y1="263.832" x2="95.802" y2="272.183"/>
			
				<line style="fill:none;stroke:#263238;stroke-linecap:round;stroke-miterlimit:10;" x1="146.902" y1="236.544" x2="141.849" y2="241.286"/>
			<path style="fill:none;stroke:#263238;stroke-width:2;stroke-linecap:round;stroke-miterlimit:10;" d="M107.97,259.896
				c0,0,0.477-7.516,7.396-10.14"/>
			<path style="fill:none;stroke:#263238;stroke-width:2;stroke-linecap:round;stroke-miterlimit:10;" d="M129.323,241.525
				c0,0,5.487-2.982,9.663,0.477"/>
		</g>
		<path style="fill:#263238;stroke:#263238;stroke-linecap:round;stroke-miterlimit:10;" d="M103.702,232.084
			c0,0,4.728,5.475,1.493,13.438c-3.235,7.963-8.959,12.692-8.959,12.692s1.742,4.977,1.493,7.466
			c-0.249,2.489-1.991,8.959-1.991,8.959l16.425,19.162c0,0-14.185,0.995-25.135-3.484c-10.95-4.479-20.904-23.393-15.678-37.08
			c5.226-13.687,19.162-21.153,19.162-21.153s-0.249-4.728,4.728-7.963C100.218,220.885,103.951,225.116,103.702,232.084z"/>
		<g>
			<path style="fill:#D9D9D9;stroke:#263238;stroke-linecap:round;stroke-miterlimit:10;" d="M98.325,271.426
				c0,0,1.271,0.636,2.383,2.701c1.112,2.066,12.235,17.637,14.142,18.75c1.907,1.112,13.824,7.309,15.254,11.44
				c1.153,3.33-2.547,42.792-4.025,57.975c-0.428,4.391-1.238,8.727-2.419,12.977c-1.505,5.417-3.652,12.235-5.314,13.898
				c-2.86,2.86-9.929,2.894-15.254,0.636c-8.867-3.761-10.328-13.029-9.852-16.684s24.311-57.202,24.788-58.95
				c0.477-1.748,0.477-3.972,0.318-4.449c-0.159-0.477-10.328-6.197-14.777-9.693c-4.449-3.496-6.038-5.402-6.991-6.832
				c-0.953-1.43-4.767-18.75-4.131-19.703c0.636-0.953,0.636-0.953,0.636-0.953s0.159-2.224,1.43-2.383
				C95.782,269.996,98.325,271.426,98.325,271.426z"/>
			<path style="fill:#92E3A9;stroke:#263238;stroke-linecap:round;stroke-miterlimit:10;" d="M123.453,376.003
				c-14.685,0.887-23.3-4.984-27.748-9.634c-1.447,3.577-2.375,6.059-2.466,6.751c-0.477,3.655,0.984,12.923,9.852,16.684
				c5.325,2.258,12.394,2.225,15.254-0.636C119.934,387.579,121.963,381.286,123.453,376.003z"/>
			<path style="fill:none;stroke:#263238;stroke-linecap:round;stroke-miterlimit:10;" d="M97.137,271.012
				c0,0,1.043,6.923,5.88,14.794l3.13,4.742"/>
			<path style="fill:none;stroke:#263238;stroke-linecap:round;stroke-miterlimit:10;" d="M93.533,270.633
				c0,0,1.897,8.346,3.319,12.234c1.422,3.888,5.5,9.863,5.5,9.863"/>
			<path style="fill:none;stroke:#263238;stroke-linecap:round;stroke-miterlimit:10;" d="M93.081,272.539
				c0,0,2.728,13.742,3.392,16.208c0.664,2.466,3.793,5.406,3.793,5.406"/>
		</g>
		<g>
			<path style="fill:#D9D9D9;stroke:#263238;stroke-linecap:round;stroke-miterlimit:10;" d="M105.014,450.113
				c0,0-9.501,2.549-14.136,0.927c-4.635-1.622-22.942-7.879-32.676-6.025c-9.733,1.854-8.806,14.832,0.927,18.539
				c9.733,3.708,28.041,2.549,34.066,1.622c6.025-0.927,15.527-2.781,15.527-2.781S104.319,452.894,105.014,450.113z"/>
			<path style="fill:#92E3A9;stroke:#263238;stroke-linecap:round;stroke-miterlimit:10;" d="M58.202,445.014
				c-9.733,1.854-8.806,14.832,0.927,18.539c9.733,3.708,28.041,2.549,34.066,1.622c1.715-0.264,3.711-0.603,5.69-0.952
				c-6.762-0.485-11.251-1.828-11.251-1.828s2.781-1.854,4.403-6.489c1.162-3.321,0.066-4.377-0.65-4.712
				c-0.175-0.047-0.346-0.098-0.509-0.155C86.243,449.418,67.936,443.16,58.202,445.014z"/>
		</g>
		<g>
			<path style="fill:#263238;stroke:#263238;stroke-linecap:round;stroke-miterlimit:10;" d="M82.999,410.717l95.246,37.542
				c0,0,0.695,3.476-0.695,9.038c-1.39,5.562-3.244,6.72-3.244,6.72l-51.291-5.664c0,0-38.162-9.863-43.724-11.948
				c-5.562-2.086-19.93-5.098-25.492-9.965c-5.562-4.867-6.721-17.149-2.086-23.174c4.635-6.025,7.648-7.648,12.051-8.111"/>
			<g>
				<path style="fill:#D9D9D9;stroke:#263238;stroke-linecap:round;stroke-miterlimit:10;" d="M178.113,450.113
					c0,0,9.501,2.549,14.136,0.927c4.635-1.622,22.943-7.879,32.676-6.025c9.733,1.854,8.806,14.832-0.927,18.539
					c-9.733,3.708-28.041,2.549-34.066,1.622c-6.025-0.927-15.527-2.781-15.527-2.781S178.808,452.894,178.113,450.113z"/>
				<path style="fill:#92E3A9;stroke:#263238;stroke-linecap:round;stroke-miterlimit:10;" d="M224.925,445.014
					c9.733,1.854,8.806,14.832-0.927,18.539c-9.733,3.708-28.041,2.549-34.066,1.622c-1.715-0.264-3.711-0.603-5.689-0.952
					c6.762-0.485,11.251-1.828,11.251-1.828s-2.781-1.854-4.403-6.489c-1.162-3.321-0.066-4.377,0.65-4.712
					c0.175-0.047,0.346-0.098,0.509-0.155C196.884,449.418,215.191,443.16,224.925,445.014z"/>
			</g>
		</g>
		<path style="fill:#263238;stroke:#263238;stroke-linecap:round;stroke-miterlimit:10;" d="M203.968,409.094
			c0,0-31.517,13.905-45.885,19.466c-14.368,5.562-49.13,19.698-51.447,20.162c-2.317,0.464-3.244,3.708-2.317,7.879
			c0.927,4.171,4.403,7.416,6.025,7.416s79.024-12.051,88.062-14.136c9.038-2.086,32.212-11.124,35.688-14.832
			c3.476-3.708,6.952-9.27,5.794-17.381c-1.159-8.111-5.098-14.368-13.673-14.136c-8.574,0.232-18.308,2.781-18.308,2.781"/>
		<g>
			<path style="fill:#FFFFFF;stroke:#263238;stroke-linecap:round;stroke-miterlimit:10;" d="M170.613,446.598
				c0-2.97,0.76-5.694,2.026-7.818h-65.315c-4.194,0-7.595,3.4-7.595,7.595s3.4,7.595,7.595,7.595h65.074
				C171.282,451.914,170.613,449.367,170.613,446.598z"/>
			<g>
				<path style="fill:#8C8C8C;stroke:#263238;stroke-linecap:round;stroke-miterlimit:10;" d="M172.397,455.308h-65.074
					c-4.926,0-8.934-4.008-8.934-8.934c0-4.926,4.007-8.934,8.934-8.934h65.315c0.74,0,1.339,0.6,1.339,1.339
					c0,0.739-0.599,1.339-1.339,1.339h-65.315c-3.45,0-6.256,2.807-6.256,6.256c0,3.45,2.807,6.256,6.256,6.256h65.074
					c0.74,0,1.339,0.6,1.339,1.339C173.736,454.709,173.137,455.308,172.397,455.308z"/>
			</g>
			<path style="fill:#FFFFFF;stroke:#263238;stroke-linecap:round;stroke-miterlimit:10;" d="M163.555,438.78
				c-1.265,2.124-2.025,4.848-2.025,7.818c0,2.77,0.669,5.317,1.784,7.371h9.084c-1.115-2.055-1.784-4.602-1.784-7.371
				c0-2.97,0.76-5.694,2.026-7.818H163.555z"/>
		</g>
		<g>
			<path style="fill:#FFFFFF;stroke:#263238;stroke-linecap:round;stroke-miterlimit:10;" d="M172.456,464.319
				c0-2.97,0.76-5.694,2.025-7.818h-65.315c-4.194,0-7.595,3.4-7.595,7.595s3.4,7.595,7.595,7.595h65.074
				C173.125,469.635,172.456,467.089,172.456,464.319z"/>
			<g>
				<path style="fill:#92E3A9;stroke:#263238;stroke-linecap:round;stroke-miterlimit:10;" d="M174.24,473.029h-65.074
					c-4.926,0-8.934-4.007-8.934-8.934c0-4.926,4.008-8.934,8.934-8.934h65.315c0.74,0,1.339,0.6,1.339,1.339
					c0,0.739-0.599,1.339-1.339,1.339h-65.315c-3.45,0-6.256,2.807-6.256,6.256c0,3.45,2.806,6.256,6.256,6.256h65.074
					c0.74,0,1.339,0.6,1.339,1.339C175.579,472.43,174.98,473.029,174.24,473.029z"/>
			</g>
			<path style="fill:#FFFFFF;stroke:#263238;stroke-linecap:round;stroke-miterlimit:10;" d="M165.398,456.501
				c-1.265,2.124-2.025,4.848-2.025,7.818c0,2.77,0.669,5.317,1.784,7.371h9.084c-1.115-2.055-1.784-4.602-1.784-7.371
				c0-2.97,0.76-5.694,2.025-7.818H165.398z"/>
		</g>
		<g>
			<path style="fill:#92E3A9;stroke:#263238;stroke-linecap:round;stroke-miterlimit:10;" d="M173.677,298.555
				c4.24-0.669,24.327,1.786,26.112,5.803c1.785,4.017-2.232,27.898-4.017,37.718c-1.785,9.82-18.078,54.233-18.97,56.911
				c-0.893,2.678-5.58,3.125-19.64,2.232c-14.061-0.893-64.053-2.009-64.053-2.009s-3.571,8.481-5.356,10.043
				c-1.785,1.562-6.249,5.356-6.249,5.356s0,4.91,1.562,5.356c1.562,0.446,2.232,0.67,1.562,2.678
				c-0.67,2.009-2.455,2.455-2.455,2.455s0,0-1.785,0.67c-1.785,0.669-2.455,0-2.455,0s-1.785-0.223-2.232-1.116
				c-0.446-0.893-3.571-7.811-2.678-10.266c0.893-2.455,9.82-19.194,10.936-20.533c1.116-1.339,19.134-4.051,19.134-4.051
				l56.079-10.903c0,0-0.223-1.562,0.893-2.232c1.116-0.67,1.116-0.67,1.116-0.67s7.588-35.486,9.374-42.405
				c1.785-6.919,6.472-14.507,6.472-14.507"/>
			<path style="fill:#D9D9D9;stroke:#263238;stroke-linecap:round;stroke-miterlimit:10;" d="M77.733,404.711
				c0,0-3.706,6.272-5.702,7.27c-1.996,0.998-5.844,2.423-5.274,3.706c0.57,1.283,1.711,2.138,3.279,1.568
				c1.568-0.57,5.702-1.853,5.702-1.853L80.726,403L77.733,404.711z"/>
			<path style="fill:none;stroke:#263238;stroke-linecap:round;stroke-miterlimit:10;" d="M160.695,379.195
				c0,0,3.279,0.998,4.134,6.272"/>
			<path style="fill:none;stroke:#263238;stroke-linecap:round;stroke-miterlimit:10;" d="M162.121,377.912
				c0,0,3.849-0.143,6.272,5.702"/>
			<path style="fill:#D9D9D9;stroke:#263238;stroke-linecap:round;stroke-miterlimit:10;" d="M83.958,393.854
				c-1.116,1.339-10.043,18.078-10.936,20.533c-0.893,2.455,2.232,9.374,2.678,10.266c0.446,0.893,2.232,1.116,2.232,1.116
				s0.67,0.67,2.455,0c1.785-0.669,1.785-0.669,1.785-0.669s1.785-0.446,2.455-2.455c0.67-2.009,0-2.232-1.562-2.678
				c-1.562-0.446-1.562-5.356-1.562-5.356s4.464-3.794,6.249-5.356c1.785-1.562,5.356-10.043,5.356-10.043s14.353,0.32,29.841,0.755
				c0.91-5.849-0.703-10.643-2.183-13.598l-17.675,3.436C103.091,389.803,85.074,392.514,83.958,393.854z"/>
			<path style="fill:none;stroke:#263238;stroke-linecap:round;stroke-miterlimit:10;" d="M82.172,425.099
				c0,0-3.03-2.315-3.394-2.679c-0.364-0.364-1.699-6.432-1.456-7.524"/>
			<path style="fill:none;stroke:#263238;stroke-linecap:round;stroke-miterlimit:10;" d="M74.531,414.167
				c0,0,1.578,8.374,1.699,8.98c0.121,0.607,1.702,2.621,1.702,2.621"/>
		</g>
		<g>
			<path style="fill:#D9D9D9;stroke:#263238;stroke-linecap:round;stroke-miterlimit:10;" d="M167.689,417.585h-63.357v-1.695
				l2.303,0.12v-14.95l-2.303-0.013v-1.745h63.357c5.049,0,9.141,4.093,9.141,9.141v0
				C176.831,413.492,172.738,417.585,167.689,417.585z"/>
			<path style="fill:#FFFFFF;stroke:#263238;stroke-linecap:round;stroke-miterlimit:10;" d="M163.172,408.444
				c0,4.132-3.896,7.481-8.703,7.481h-47.833V401.06l47.833-0.097C159.275,400.963,163.172,404.312,163.172,408.444z"/>
			<path style="fill:#8C8C8C;stroke:#263238;stroke-linecap:round;stroke-miterlimit:10;" d="M158.223,401.703v13.482
				c2.924-1.206,4.949-3.767,4.949-6.741C163.172,405.47,161.147,402.908,158.223,401.703z"/>
		</g>
		<g>
			<path style="fill:#8C8C8C;stroke:#263238;stroke-linecap:round;stroke-miterlimit:10;" d="M167.095,438.337H99.468v-1.809
				l2.458,0.128v-15.958l-2.458-0.014v-1.863h67.627c5.389,0,9.757,4.369,9.757,9.758l0,0
				C176.852,433.968,172.484,438.337,167.095,438.337z"/>
			<path style="fill:#FFFFFF;stroke:#263238;stroke-linecap:round;stroke-miterlimit:10;" d="M162.273,428.579
				c0,4.41-4.159,7.985-9.29,7.985h-51.057v-15.866l51.057-0.104C158.114,420.594,162.273,424.169,162.273,428.579z"/>
			<path style="fill:#8C8C8C;stroke:#263238;stroke-linecap:round;stroke-miterlimit:10;" d="M156.991,421.384v14.391
				c3.121-1.287,5.282-4.021,5.282-7.195C162.273,425.405,160.112,422.671,156.991,421.384z"/>
		</g>
	</g>
</g>
</svg>
